<svg width="23" height="16" viewBox="0 0 23 16" fill="none" xmlns="http://www.w3.org/2000/svg">
<path d="M22.5426 0.446916C21.9327 -0.148972 20.9439 -0.148972 20.3341 0.446916L8.1872 12.316L2.66592 6.92102C2.05604 6.32504 1.06725 6.32504 0.457394 6.92102C-0.152465 7.51691 -0.152465 8.48311 0.457394 9.07899L7.074 15.5443C7.07696 15.5472 7.07994 15.5502 7.08291 15.5531C7.15914 15.6276 7.24131 15.6927 7.3279 15.7486C7.93407 16.1397 8.75779 16.0745 9.29145 15.5531C9.29442 15.5502 9.29745 15.5472 9.30041 15.5443L22.5426 2.60498C23.1525 2.009 23.1525 1.0429 22.5426 0.446916Z" fill="#2764E0"/>
</svg>
