<svg width="60" height="60" viewBox="0 0 60 60" fill="none" xmlns="http://www.w3.org/2000/svg">
<circle cx="30" cy="30" r="30" fill="url(#paint0_linear_1_177)"/>
<path opacity="0.3" d="M30.0156 4.99988C34.404 4.99988 38.7151 6.15503 42.5156 8.34924C46.3161 10.5435 49.4721 13.6994 51.6663 17.4999C53.8605 21.3004 55.0156 25.6115 55.0156 29.9999C55.0156 34.3883 53.8605 38.6994 51.6663 42.4999C49.4721 46.3004 46.3161 49.4563 42.5156 51.6505C38.7151 53.8447 34.404 54.9999 30.0156 54.9999C25.6272 54.9999 21.3161 53.8447 17.5156 51.6505C13.7151 49.4563 10.5592 46.3004 8.36499 42.4999L30.0156 29.9999V4.99988Z" fill="white"/>
<path d="M33.875 36H26.8438V34.5078L29.9453 31.5C30.737 30.7344 31.3021 30.099 31.6406 29.5938C31.9792 29.0833 32.1484 28.5391 32.1484 27.9609C32.1484 27.3672 31.9714 26.9089 31.6172 26.5859C31.2682 26.2578 30.7682 26.0938 30.1172 26.0938C29.1641 26.0938 28.2526 26.5208 27.3828 27.375V25.6328C28.3047 24.9505 29.375 24.6094 30.5938 24.6094C31.6458 24.6094 32.474 24.875 33.0781 25.4062C33.6823 25.9323 33.9844 26.6953 33.9844 27.6953C33.9844 28.3672 33.7969 29.026 33.4219 29.6719C33.0469 30.3125 32.3255 31.1536 31.2578 32.1953L28.9531 34.4062V34.4453H33.875V36Z" fill="white"/>
<defs>
<linearGradient id="paint0_linear_1_177" x1="11.6666" y1="7.44489e-07" x2="44.1667" y2="59.9998" gradientUnits="userSpaceOnUse">
<stop stop-color="#2764E0"/>
<stop offset="1" stop-color="#DD0858"/>
</linearGradient>
</defs>
</svg>
