<svg width="60" height="60" viewBox="0 0 60 60" fill="none" xmlns="http://www.w3.org/2000/svg">
<circle cx="30" cy="30" r="30" fill="url(#paint0_linear_1_181)"/>
<circle opacity="0.3" cx="30" cy="29.9999" r="25" fill="white"/>
<path d="M27.1328 35.5859V33.8828C27.862 34.4609 28.6849 34.75 29.6016 34.75C30.3464 34.75 30.9401 34.5807 31.3828 34.2422C31.8307 33.9036 32.0547 33.4453 32.0547 32.8672C32.0547 31.5964 31.0833 30.9609 29.1406 30.9609H28.2734V29.5078H29.1016C30.8255 29.5078 31.6875 28.9089 31.6875 27.7109C31.6875 26.6068 31.0156 26.0547 29.6719 26.0547C28.9219 26.0547 28.2161 26.3229 27.5547 26.8594V25.25C28.3151 24.8229 29.2135 24.6094 30.25 24.6094C31.2448 24.6094 32.0417 24.8594 32.6406 25.3594C33.2396 25.8594 33.5391 26.5 33.5391 27.2812C33.5391 28.7552 32.7891 29.7031 31.2891 30.125V30.1562C32.0964 30.2344 32.7344 30.5182 33.2031 31.0078C33.6719 31.4922 33.9062 32.099 33.9062 32.8281C33.9062 33.8333 33.5286 34.6458 32.7734 35.2656C32.0182 35.8802 31.0234 36.1875 29.7891 36.1875C28.6797 36.1875 27.7943 35.987 27.1328 35.5859Z" fill="white"/>
<defs>
<linearGradient id="paint0_linear_1_181" x1="11.6666" y1="7.44489e-07" x2="44.1667" y2="59.9998" gradientUnits="userSpaceOnUse">
<stop stop-color="#2764E0"/>
<stop offset="1" stop-color="#DD0858"/>
</linearGradient>
</defs>
</svg>
