<svg width="57" height="20" viewBox="0 0 57 20" fill="none" xmlns="http://www.w3.org/2000/svg">
<path d="M6.552 5.272C6.552 4.45733 6.41333 3.91133 6.136 3.634C5.876 3.33933 5.52067 3.192 5.07 3.192C4.61933 3.192 4.25533 3.33067 3.978 3.608C3.718 3.868 3.588 4.32733 3.588 4.986V6.156H0.884V5.168C0.884 3.69467 1.23933 2.568 1.95 1.788C2.678 0.990666 3.744 0.592 5.148 0.592C6.552 0.592 7.60933 0.990666 8.32 1.788C9.048 2.568 9.412 3.69467 9.412 5.168V5.636C9.412 7.57733 8.74467 8.82533 7.41 9.38C8.138 9.692 8.64933 10.1773 8.944 10.836C9.256 11.4773 9.412 12.266 9.412 13.202V14.632C9.412 16.1053 9.048 17.2407 8.32 18.038C7.60933 18.818 6.552 19.208 5.148 19.208C3.744 19.208 2.678 18.818 1.95 18.038C1.23933 17.2407 0.884 16.1053 0.884 14.632V13.124H3.588V14.814C3.588 15.4727 3.718 15.9407 3.978 16.218C4.25533 16.478 4.61933 16.608 5.07 16.608C5.52067 16.608 5.876 16.4693 6.136 16.192C6.41333 15.9147 6.552 15.3687 6.552 14.554V13.124C6.552 12.2747 6.40467 11.6767 6.11 11.33C5.81533 10.9833 5.33867 10.81 4.68 10.81H3.718V8.21H4.836C5.37333 8.21 5.78933 8.07133 6.084 7.794C6.396 7.51667 6.552 7.014 6.552 6.286V5.272ZM17.4066 13.722L19.3566 0.799999H23.3346V19H20.6306V5.948L18.6546 19H15.9506L13.8186 6.13V19H11.3226V0.799999H15.3006L17.4066 13.722ZM24.609 16.426C24.9383 16.426 25.207 16.4087 25.415 16.374C25.6403 16.3393 25.8223 16.2613 25.961 16.14C26.0997 16.0013 26.195 15.8107 26.247 15.568C26.3163 15.308 26.3597 14.97 26.377 14.554L26.845 0.799999H34.931V19H32.019V3.4H29.523L29.211 14.398C29.159 16.062 28.8037 17.2493 28.145 17.96C27.5037 18.6707 26.4723 19.026 25.051 19.026H24.609V16.426ZM39.9801 19H37.1201V0.799999H39.9801V8.6H43.2301V0.799999H46.1421V19H43.2301V11.2H39.9801V19ZM53.3378 8.886H56.8218V10.914H53.3378V14.476H51.3098V10.914H47.8258V8.886H51.3098V5.376H53.3378V8.886Z" fill="#333333"/>
</svg>
