<svg width="22" height="25" viewBox="0 0 22 25" fill="none" xmlns="http://www.w3.org/2000/svg">
<path fill-rule="evenodd" clip-rule="evenodd" d="M0.255859 1.09709L1.7432 0.902588L2.1963 4.36748H21.7495V9.47269C21.7495 11.7437 20.142 13.697 17.9135 14.1339L2.3595 17.1837L0.255859 1.09709ZM2.39245 5.86748L3.63956 15.4042L17.6249 12.662C19.1497 12.363 20.2495 11.0265 20.2495 9.47269V5.86748H2.39245Z" fill="#6C757D"/>
<path fill-rule="evenodd" clip-rule="evenodd" d="M3.9407 23.0292C4.73664 23.0292 5.38188 22.384 5.38188 21.588C5.38188 20.7921 4.73664 20.1468 3.9407 20.1468C3.14476 20.1468 2.49953 20.7921 2.49953 21.588C2.49953 22.384 3.14476 23.0292 3.9407 23.0292ZM3.9407 24.5292C5.56507 24.5292 6.88188 23.2124 6.88188 21.588C6.88188 19.9636 5.56507 18.6468 3.9407 18.6468C2.31634 18.6468 0.999528 19.9636 0.999528 21.588C0.999528 23.2124 2.31634 24.5292 3.9407 24.5292Z" fill="#6C757D"/>
<path fill-rule="evenodd" clip-rule="evenodd" d="M18.0587 23.0292C18.8547 23.0292 19.4999 22.384 19.4999 21.588C19.4999 20.7921 18.8547 20.1468 18.0587 20.1468C17.2628 20.1468 16.6175 20.7921 16.6175 21.588C16.6175 22.384 17.2628 23.0292 18.0587 23.0292ZM18.0587 24.5292C19.6831 24.5292 20.9999 23.2124 20.9999 21.588C20.9999 19.9636 19.6831 18.6468 18.0587 18.6468C16.4343 18.6468 15.1175 19.9636 15.1175 21.588C15.1175 23.2124 16.4343 24.5292 18.0587 24.5292Z" fill="#6C757D"/>
</svg>
