<svg width="24" height="24" viewBox="0 0 24 24" fill="none" xmlns="http://www.w3.org/2000/svg">
<path fill-rule="evenodd" clip-rule="evenodd" d="M12 1.75C6.33908 1.75 1.75 6.33908 1.75 12C1.75 14.7203 2.80972 17.1931 4.53885 19.0281C4.87318 18.6705 5.28484 18.2418 5.70481 17.833C6.10021 17.4481 6.51765 17.0664 6.89312 16.7761C7.07994 16.6317 7.27284 16.4971 7.45908 16.3951C7.621 16.3064 7.87817 16.1847 8.16605 16.1847H15.8344C16.3212 16.1847 16.8059 16.4274 17.1841 16.6646C17.5919 16.9204 18.0112 17.2585 18.3962 17.6067C18.8447 18.0122 19.2775 18.4596 19.6213 18.8542C21.2555 17.0383 22.25 14.6353 22.25 12C22.25 6.33908 17.6609 1.75 12 1.75ZM18.5379 19.8945C18.2399 19.548 17.8316 19.1184 17.3902 18.7193C17.041 18.4036 16.6936 18.1276 16.387 17.9353C16.2341 17.8394 16.1041 17.7723 15.9991 17.7309C15.9475 17.7105 15.9071 17.6984 15.8774 17.6916C15.8473 17.6848 15.8344 17.6847 15.8344 17.6847H8.23064C8.21833 17.6904 8.2014 17.6988 8.17948 17.7108C8.0895 17.76 7.96593 17.8428 7.81049 17.9629C7.50142 18.2018 7.13113 18.5379 6.75111 18.9079C6.35495 19.2935 5.96413 19.7002 5.64428 20.0421C7.39121 21.4246 9.59922 22.25 12 22.25C14.485 22.25 16.7635 21.3657 18.5379 19.8945ZM0.25 12C0.25 5.51065 5.51065 0.25 12 0.25C18.4893 0.25 23.75 5.51065 23.75 12C23.75 18.4893 18.4893 23.75 12 23.75C5.51065 23.75 0.25 18.4893 0.25 12ZM7.31033 8.25079C7.31033 5.71504 9.44107 3.6875 12.0003 3.6875C14.5596 3.6875 16.6903 5.71505 16.6903 8.25079C16.6903 10.7865 14.5596 12.8141 12.0003 12.8141C9.44107 12.8141 7.31033 10.7865 7.31033 8.25079ZM12.0003 5.1875C10.2229 5.1875 8.81033 6.58931 8.81033 8.25079C8.81033 9.91226 10.2229 11.3141 12.0003 11.3141C13.7778 11.3141 15.1903 9.91226 15.1903 8.25079C15.1903 6.58931 13.7778 5.1875 12.0003 5.1875Z" fill="#6C757D"/>
</svg>
