<svg width="22" height="19" viewBox="0 0 22 19" fill="none" xmlns="http://www.w3.org/2000/svg">
<path fill-rule="evenodd" clip-rule="evenodd" d="M0 2.13333C0 1.08729 0.85339 0.25 1.89286 0.25H6.28502C7.69434 0.25 9.04718 0.805123 10.0456 1.79524L10.237 1.98505C10.3087 1.96228 10.3851 1.95 10.4643 1.95C10.5435 1.95 10.6199 1.96228 10.6915 1.98505L10.883 1.79524C11.8814 0.805124 13.2342 0.25 14.6435 0.25H19.6071C20.6466 0.25 21.5 1.08729 21.5 2.13333V14.0333C21.5 15.0794 20.6466 15.9167 19.6071 15.9167H15.215C14.1995 15.9167 13.2268 16.3168 12.5106 17.027L10.9924 18.5325C10.7 18.8225 10.2286 18.8225 9.93618 18.5325L8.41798 17.027C7.70173 16.3167 6.72955 15.9167 5.71411 15.9167H1.89186C0.851542 15.9167 0 15.0785 0 14.0333V2.13333ZM9.71429 3.57917L8.98941 2.86033C8.27322 2.15011 7.30055 1.75 6.28502 1.75H1.89286C1.66996 1.75 1.5 1.92753 1.5 2.13333V14.0333C1.5 14.24 1.66982 14.4167 1.89186 14.4167H5.71411C7.12352 14.4167 8.47582 14.9719 9.47419 15.9619L9.71429 16.2V3.57917ZM11.2143 16.2L11.4544 15.9619C12.4528 14.9718 13.8057 14.4167 15.215 14.4167H19.6071C19.83 14.4167 20 14.2391 20 14.0333V2.13333C20 1.92753 19.83 1.75 19.6071 1.75H14.6435C13.628 1.75 12.6553 2.15011 11.9392 2.86033L11.2143 3.57917V16.2Z" fill="#6C757D"/>
</svg>
