<svg width="22" height="19" viewBox="0 0 22 19" fill="none" xmlns="http://www.w3.org/2000/svg">
<path fill-rule="evenodd" clip-rule="evenodd" d="M1.89286 0.25C0.85339 0.25 0 1.08729 0 2.13333V14.0333C0 15.0785 0.851542 15.9167 1.89186 15.9167H5.71411C6.72955 15.9167 7.70173 16.3167 8.41798 17.027L9.93618 18.5325C10.2286 18.8225 10.7 18.8225 10.9924 18.5325L12.5106 17.027C13.2268 16.3168 14.1995 15.9167 15.215 15.9167H19.6071C20.6466 15.9167 21.5 15.0794 21.5 14.0333V2.13333C21.5 1.08729 20.6466 0.25 19.6071 0.25H14.6435C13.2342 0.25 11.8814 0.805124 10.883 1.79524L10.6915 1.98505C10.6199 1.96228 10.5435 1.95 10.4643 1.95C10.3851 1.95 10.3087 1.96228 10.237 1.98505L10.0456 1.79524C9.04718 0.805123 7.69434 0.25 6.28502 0.25H1.89286ZM11.4544 15.9619L11.2143 16.2V3.57917L11.9392 2.86033C12.6553 2.15011 13.628 1.75 14.6435 1.75H19.6071C19.83 1.75 20 1.92753 20 2.13333V14.0333C20 14.2391 19.83 14.4167 19.6071 14.4167H15.215C13.8057 14.4167 12.4528 14.9718 11.4544 15.9619Z" fill="#2764E0"/>
</svg>
