<svg width="24" height="20" viewBox="0 0 24 20" fill="none" xmlns="http://www.w3.org/2000/svg">
<path fill-rule="evenodd" clip-rule="evenodd" d="M0.25 2.35989C0.249634 1.18594 1.20956 0.25 2.37509 0.25H8.92735C9.13342 0.25 9.33041 0.334785 9.47206 0.484445L12.4185 3.59747H21.625C22.7908 3.59747 23.75 4.53445 23.75 5.70754L23.7497 16.2801C23.7496 18.2042 22.1748 19.75 20.2496 19.75L3.75067 19.75C1.82542 19.75 0.250594 18.2041 0.250613 16.2799L0.250717 5.93897C0.250724 4.90332 0.250334 3.42812 0.25 2.35989ZM12.7505 7.74679C12.7505 7.35613 12.4518 7.03523 12.0704 7H11.9306C11.5492 7.03523 11.2505 7.35613 11.2505 7.74679V10.8435H8.11133C7.69711 10.8435 7.36133 11.1793 7.36133 11.5935C7.36133 12.0077 7.69711 12.3435 8.11133 12.3435H11.2505V15.4402C11.2505 15.8544 11.5863 16.1902 12.0005 16.1902C12.4147 16.1902 12.7505 15.8544 12.7505 15.4402V12.3435H15.8897C16.3039 12.3435 16.6397 12.0077 16.6397 11.5935C16.6397 11.1793 16.3039 10.8435 15.8897 10.8435H12.7505V7.74679Z" fill="#2764E0"/>
</svg>
