<svg width="22" height="25" viewBox="0 0 22 25" fill="none" xmlns="http://www.w3.org/2000/svg">
<path d="M0.255859 1.09709L1.7432 0.902588L2.1963 4.36748H21.7495V9.47269C21.7495 11.7437 20.142 13.697 17.9135 14.1339L2.3595 17.1837L0.255859 1.09709Z" fill="#2764E0"/>
<path d="M3.9407 24.5292C5.56507 24.5292 6.88188 23.2124 6.88188 21.588C6.88188 19.9636 5.56507 18.6468 3.9407 18.6468C2.31634 18.6468 0.999528 19.9636 0.999528 21.588C0.999528 23.2124 2.31634 24.5292 3.9407 24.5292Z" fill="#2764E0"/>
<path d="M20.9999 21.588C20.9999 23.2124 19.6831 24.5292 18.0587 24.5292C16.4343 24.5292 15.1175 23.2124 15.1175 21.588C15.1175 19.9636 16.4343 18.6468 18.0587 18.6468C19.6831 18.6468 20.9999 19.9636 20.9999 21.588Z" fill="#2764E0"/>
</svg>
