<svg width="24" height="20" viewBox="0 0 24 20" fill="none" xmlns="http://www.w3.org/2000/svg">
<path fill-rule="evenodd" clip-rule="evenodd" d="M2.37509 1.75C2.02139 1.75 1.7499 2.03076 1.75 2.35943C1.75033 3.42765 1.75072 4.90306 1.75072 5.93898L1.75061 16.2799C1.7506 17.3602 2.63827 18.25 3.75067 18.25L20.2496 18.25C21.362 18.25 22.2496 17.3603 22.2497 16.28L22.25 5.7075C22.25 5.37834 21.978 5.09747 21.625 5.09747H12.0957C11.8896 5.09747 11.6926 5.01269 11.551 4.86303L8.60455 1.75H2.37509ZM0.25 2.35989C0.249634 1.18594 1.20956 0.25 2.37509 0.25H8.92735C9.13342 0.25 9.33041 0.334785 9.47206 0.484445L12.4185 3.59747H21.625C22.7908 3.59747 23.75 4.53445 23.75 5.70754L23.7497 16.2801C23.7496 18.2042 22.1748 19.75 20.2496 19.75L3.75067 19.75C1.82542 19.75 0.250594 18.2041 0.250613 16.2799L0.250717 5.93897C0.250724 4.90332 0.250333 3.42812 0.25 2.35989ZM11.9998 6.99679C12.414 6.99679 12.7498 7.33258 12.7498 7.74679L12.7498 10.8435H15.889C16.3032 10.8435 16.639 11.1793 16.639 11.5935C16.639 12.0077 16.3032 12.3435 15.889 12.3435H12.7498L12.7498 15.4402C12.7498 15.8544 12.414 16.1902 11.9998 16.1902C11.5856 16.1902 11.2498 15.8544 11.2498 15.4402L11.2498 12.3435H8.11061C7.6964 12.3435 7.36061 12.0077 7.36061 11.5935C7.36061 11.1793 7.6964 10.8435 8.11061 10.8435H11.2498L11.2498 7.74679C11.2498 7.33258 11.5856 6.99679 11.9998 6.99679Z" fill="#6C757D"/>
</svg>
