<svg width="22" height="22" viewBox="0 0 22 22" fill="none" xmlns="http://www.w3.org/2000/svg">
<path fill-rule="evenodd" clip-rule="evenodd" d="M10.3333 1.75C5.59289 1.75 1.75 5.59289 1.75 10.3333C1.75 15.0738 5.59289 18.9167 10.3333 18.9167C12.6709 18.9167 14.7902 17.9823 16.3381 16.4666C16.3396 16.4651 16.3412 16.4636 16.3427 16.462C17.9312 14.9043 18.9167 12.7339 18.9167 10.3333C18.9167 5.59289 15.0738 1.75 10.3333 1.75ZM17.9194 16.9762C19.4742 15.2021 20.4167 12.8778 20.4167 10.3333C20.4167 4.76446 15.9022 0.25 10.3333 0.25C4.76446 0.25 0.25 4.76446 0.25 10.3333C0.25 15.9022 4.76446 20.4167 10.3333 20.4167C12.8177 20.4167 15.0922 19.5182 16.8497 18.0284L20.4785 21.539C20.7762 21.827 21.251 21.8192 21.539 21.5215C21.827 21.2238 21.8192 20.749 21.5215 20.461L17.9194 16.9762Z" fill="#6C757D"/>
</svg>
