<svg width="24" height="24" viewBox="0 0 24 24" fill="none" xmlns="http://www.w3.org/2000/svg">
<path fill-rule="evenodd" clip-rule="evenodd" d="M0.25 12C0.25 5.51065 5.51065 0.25 12 0.25C18.4893 0.25 23.75 5.51065 23.75 12C23.75 18.4893 18.4893 23.75 12 23.75C5.51065 23.75 0.25 18.4893 0.25 12ZM18.3227 19.8086C18.039 19.4855 17.6677 19.0993 17.2678 18.7377C16.9244 18.4272 16.5854 18.1583 16.289 17.9723C16.1412 17.8796 16.0184 17.8167 15.9224 17.7788C15.8444 17.748 15.8049 17.742 15.7974 17.7409L15.7962 17.7407H8.29029C8.2834 17.7442 8.27557 17.7483 8.26676 17.7531C8.18456 17.7981 8.06714 17.8764 7.9154 17.9937C7.61398 18.2266 7.25051 18.5564 6.8751 18.9218C6.51685 19.2705 6.16286 19.6369 5.86305 19.9556C7.56047 21.2669 9.68913 22.0471 12 22.0471C14.396 22.0471 16.596 21.2084 18.3227 19.8086ZM12 13.0218C14.5707 13.0218 16.6546 10.9379 16.6546 8.36721C16.6546 5.79655 14.5707 3.71262 12 3.71262C9.42934 3.71262 7.34541 5.79655 7.34541 8.36721C7.34541 10.9379 9.42934 13.0218 12 13.0218Z" fill="#2764E0"/>
</svg>
