<svg width="18" height="18" viewBox="0 0 18 18" fill="none" xmlns="http://www.w3.org/2000/svg">
<path fill-rule="evenodd" clip-rule="evenodd" d="M8.97794 10.6527C6.34889 10.6527 4.21899 8.22012 4.21899 5.22112C4.21899 2.22213 6.34889 0 8.97794 0C11.607 0 13.7388 2.22213 13.7388 5.22112C13.7388 8.22012 11.607 10.6527 8.97794 10.6527ZM1.57533 17.9967C1.57533 17.9967 0.565357 18.0598 0.120694 17.4767C-0.119637 17.1606 0.04772 16.5218 0.212158 16.1658L0.614981 15.2916C0.614981 15.2916 1.72712 12.9202 2.99397 11.5464C3.77238 10.7037 4.6977 10.8956 5.2961 11.1691C5.66487 11.3378 6.08228 11.8291 6.38684 12.0896C6.8062 12.4484 7.54763 12.8563 8.75902 12.8795H9.50239C10.7138 12.8563 11.4542 12.4484 11.8736 12.0896C12.1782 11.8291 12.5839 11.3229 12.9488 11.1487C13.4985 10.8863 14.3343 10.725 15.0923 11.5464C16.3591 12.9202 17.3633 15.3343 17.3633 15.3343L17.7758 16.1918C17.9461 16.5459 18.1213 17.1819 17.8877 17.5008C17.4703 18.0718 16.5343 17.9967 16.5343 17.9967H1.57533Z" fill="#C6CAD9"/>
</svg>
