<svg width="139" height="42" viewBox="0 0 139 42" fill="none" xmlns="http://www.w3.org/2000/svg">
<path d="M27.7398 0L13.8984 14.0393H27.7398V42L41.6984 28.0787V0H27.7398Z" fill="#E86630"/>
<path d="M13.9587 42L27.8 27.9607H13.9587V0L0 13.9213V42H13.9587Z" fill="white"/>
<path d="M56.9883 7V35H64.2117V13.3529H75.2797V35H82.503V7H56.9883Z" fill="white"/>
<path d="M125.883 29.0928H120.545V23.54H125.883C127.586 23.54 129.29 24.249 129.29 26.3756C129.176 28.384 127.586 29.0928 125.883 29.0928ZM126.564 17.5147H120.545V13.2616H134.06V7H113.391V35H126.791C132.129 35 136.217 32.1646 136.217 26.2574C136.331 20.3503 132.242 17.5147 126.564 17.5147Z" fill="white"/>
<path d="M99.787 28.8784C94.9602 28.8784 92.3168 25.4023 92.3168 20.9992C92.3168 17.5231 94.2706 13.12 99.6721 13.12C103.005 13.12 105.189 15.2057 105.993 16.1327L110.36 11.7296C107.717 8.60104 103.809 6.51538 99.3273 6.51538C91.3975 6.51538 85.1914 12.4248 85.1914 20.9992C85.1914 28.9943 91.3975 35.483 99.3273 35.483C104.039 35.483 108.292 33.1656 110.82 29.5736L106.453 25.1705C105.074 27.2562 102.775 28.8784 99.787 28.8784Z" fill="white"/>
</svg>
