<svg width="36" height="32" viewBox="0 0 36 32" fill="none" xmlns="http://www.w3.org/2000/svg">
<path d="M26.4375 0C24.484 0 22.693 0.619031 21.1144 1.83994C19.6009 3.01043 18.5932 4.50127 18 5.58534C17.4068 4.50119 16.3991 3.01043 14.8856 1.83994C13.307 0.619031 11.516 0 9.5625 0C4.11103 0 0 4.45901 0 10.3721C0 16.7603 5.1288 21.1309 12.8931 27.7476C14.2116 28.8712 15.7061 30.1449 17.2595 31.5032C17.4642 31.6825 17.7272 31.7812 18 31.7812C18.2728 31.7812 18.5358 31.6825 18.7405 31.5033C20.294 30.1447 21.7884 28.8712 23.1077 27.7469C30.8712 21.1309 36 16.7603 36 10.3721C36 4.45901 31.889 0 26.4375 0Z" fill="url(#paint0_linear_1_120)"/>
<defs>
<linearGradient id="paint0_linear_1_120" x1="6.99994" y1="3.94347e-07" x2="22.9982" y2="33.4557" gradientUnits="userSpaceOnUse">
<stop stop-color="#2764E0"/>
<stop offset="1" stop-color="#DD0858"/>
</linearGradient>
</defs>
</svg>
