<svg width="36" height="36" viewBox="0 0 36 36" fill="none" xmlns="http://www.w3.org/2000/svg">
<path d="M18 0C14.4399 0 10.9598 1.05568 7.99974 3.03355C5.03966 5.01141 2.73255 7.82263 1.37018 11.1117C0.00779929 14.4008 -0.348661 18.02 0.345873 21.5116C1.04041 25.0033 2.75474 28.2106 5.27208 30.7279C7.78943 33.2453 10.9967 34.9596 14.4884 35.6541C17.98 36.3487 21.5992 35.9922 24.8883 34.6298C28.1774 33.2674 30.9886 30.9603 32.9665 28.0003C34.9443 25.0402 36 21.5601 36 18C35.9946 13.2278 34.0964 8.65252 30.722 5.27804C27.3475 1.90356 22.7722 0.00539936 18 0ZM26.28 22.1364C26.2096 22.2775 26.1121 22.4033 25.9931 22.5067C25.874 22.6101 25.7358 22.689 25.5862 22.7389C25.4367 22.7888 25.2787 22.8088 25.1214 22.7977C24.9642 22.7865 24.8106 22.7445 24.6696 22.674L17.4696 19.074C17.269 18.9752 17.1 18.8222 16.9817 18.6325C16.8634 18.4427 16.8005 18.2236 16.8 18V6C16.8 5.68174 16.9264 5.37651 17.1515 5.15147C17.3765 4.92643 17.6817 4.8 18 4.8C18.3183 4.8 18.6235 4.92643 18.8485 5.15147C19.0736 5.37651 19.2 5.68174 19.2 6V17.2584L25.7364 20.526C25.878 20.5959 26.0044 20.693 26.1084 20.8118C26.2124 20.9306 26.292 21.0688 26.3425 21.2184C26.393 21.368 26.4134 21.5261 26.4027 21.6836C26.392 21.8411 26.3503 21.995 26.28 22.1364Z" fill="url(#paint0_linear_1_125)"/>
<defs>
<linearGradient id="paint0_linear_1_125" x1="6.99994" y1="4.46693e-07" x2="26.5" y2="35.9999" gradientUnits="userSpaceOnUse">
<stop stop-color="#2764E0"/>
<stop offset="1" stop-color="#DD0858"/>
</linearGradient>
</defs>
</svg>
