<svg width="45" height="36" viewBox="0 0 45 36" fill="none" xmlns="http://www.w3.org/2000/svg">
<path d="M19.7617 19.0358C19.7617 17.2604 21.206 15.8162 22.9814 15.8162C24.7567 15.8162 26.2009 17.2605 26.2009 19.0358C26.2009 20.8112 24.7567 22.2554 22.9814 22.2554C21.206 22.2554 19.7617 20.8112 19.7617 19.0358Z" fill="url(#paint0_linear_1_115)"/>
<path fill-rule="evenodd" clip-rule="evenodd" d="M6.25452 0H38.0504C41.4992 0 44.3049 2.80583 44.3048 6.25452V29.7454C44.3048 33.1942 41.4991 36 38.0503 36H6.25452C2.80583 36 0 33.1942 0 29.7454V6.25452C0 2.80583 2.80583 0 6.25452 0ZM16.183 6.16721C16.1752 6.20866 16.1683 6.25115 16.1639 6.29268C16.1605 6.33508 16.1578 6.37818 16.1578 6.42067C16.1578 6.46315 16.1604 6.50642 16.1639 6.54787C16.1682 6.59027 16.1751 6.63276 16.1829 6.67421C16.1915 6.71583 16.2019 6.75728 16.214 6.79804C16.227 6.83784 16.2409 6.87851 16.2573 6.91745C16.2738 6.95639 16.2919 6.99438 16.3118 7.03168C16.3317 7.06975 16.3534 7.10609 16.3767 7.14157C16.4001 7.17627 16.4252 7.2108 16.452 7.24368C16.4788 7.27657 16.5083 7.30858 16.5377 7.33896C16.568 7.36838 16.6 7.39771 16.6329 7.42462C16.6649 7.45136 16.6995 7.47646 16.735 7.49982C16.7705 7.52327 16.8068 7.5449 16.844 7.56472C16.8812 7.58471 16.9202 7.60288 16.9591 7.61932C16.998 7.63568 17.0387 7.64961 17.0785 7.66259C17.1192 7.67462 17.1607 7.685 17.2023 7.69365C17.2438 7.70144 17.2862 7.70836 17.3277 7.71269C17.3701 7.71702 17.4134 7.71875 17.4558 7.71875C17.4982 7.71875 17.5406 7.7171 17.583 7.71269C17.6254 7.70836 17.6678 7.70144 17.7093 7.69365C17.7509 7.68509 17.7924 7.6747 17.8322 7.66259C17.8729 7.64961 17.9136 7.63568 17.9525 7.61932C17.9914 7.60279 18.0295 7.58462 18.0667 7.56472C18.1039 7.5449 18.1411 7.52327 18.1766 7.49982C18.2112 7.47654 18.2458 7.45145 18.2787 7.42462C18.3116 7.3978 18.3436 7.36838 18.3739 7.33896C18.4033 7.30858 18.4319 7.27657 18.4596 7.24368C18.4855 7.2108 18.5115 7.17619 18.5349 7.14157C18.5582 7.10601 18.5799 7.06966 18.5998 7.03168C18.6197 6.99447 18.6378 6.95639 18.6543 6.91745C18.6707 6.87851 18.6846 6.83784 18.6967 6.79804C18.7097 6.75728 18.72 6.71574 18.7287 6.67421C18.7365 6.63267 18.7434 6.59027 18.7477 6.54787C18.7512 6.50633 18.7538 6.46307 18.7538 6.42067C18.7538 6.37826 18.7512 6.335 18.7477 6.29268C18.7434 6.25115 18.7365 6.20866 18.7287 6.16721C18.72 6.12559 18.7097 6.08414 18.6967 6.04338C18.6846 6.00358 18.6707 5.96291 18.6543 5.92397C18.6378 5.88511 18.6197 5.84617 18.5998 5.80888C18.5799 5.77167 18.5582 5.73532 18.5349 5.69985C18.5115 5.66437 18.4855 5.63062 18.4596 5.59774C18.4319 5.56485 18.4033 5.53284 18.3739 5.50246C18.3436 5.47304 18.3116 5.44371 18.2787 5.41688C18.2458 5.39006 18.2112 5.36496 18.1766 5.3416C18.1411 5.31815 18.1039 5.29652 18.0667 5.2767C18.0295 5.25671 17.9914 5.23854 17.9525 5.22218C17.9136 5.20574 17.8729 5.19181 17.8322 5.17892C17.7924 5.1668 17.7509 5.15642 17.7093 5.14776C17.6678 5.13998 17.6254 5.13305 17.583 5.12873C17.4983 5.11999 17.4126 5.11999 17.3278 5.12873C17.2863 5.13305 17.2439 5.13998 17.2023 5.14776C17.1608 5.15633 17.1193 5.16672 17.0786 5.17892C17.0388 5.19181 16.9981 5.20574 16.9592 5.22218C16.9202 5.23862 16.8813 5.2568 16.8441 5.2767C16.8069 5.29652 16.7705 5.31815 16.7351 5.3416C16.6996 5.36488 16.665 5.38997 16.6329 5.41688C16.6001 5.44362 16.5681 5.47304 16.5378 5.50246C16.5083 5.53284 16.4789 5.56485 16.4521 5.59774C16.4253 5.63062 16.4002 5.66437 16.3768 5.69985C16.3534 5.73532 16.3318 5.77167 16.3119 5.80888C16.292 5.84617 16.2738 5.88511 16.2574 5.92397C16.241 5.96291 16.2271 6.00358 16.2141 6.04338C16.202 6.08414 16.1916 6.12568 16.183 6.16721ZM8.51952 6.67421C8.52731 6.63267 8.53424 6.59027 8.53856 6.54787C8.54202 6.50642 8.54462 6.46315 8.54453 6.42067C8.54453 6.37826 8.54194 6.335 8.53848 6.29268C8.53415 6.25115 8.52723 6.20866 8.51944 6.16721C8.51079 6.12559 8.5004 6.08414 8.48829 6.04338C8.47531 6.00358 8.46146 5.96291 8.44502 5.92397C8.42858 5.88511 8.41041 5.84617 8.3905 5.80888C8.3706 5.77167 8.34897 5.73532 8.3256 5.69985C8.30224 5.66437 8.27628 5.63062 8.25032 5.59774C8.22263 5.56485 8.19407 5.53284 8.16465 5.50246C8.13437 5.47304 8.10235 5.44371 8.06947 5.41688C8.03658 5.39006 8.00197 5.36496 7.96736 5.3416C7.93188 5.31815 7.89553 5.29652 7.85746 5.2767C7.82025 5.25671 7.78218 5.23854 7.74324 5.22218C7.7043 5.20574 7.66363 5.19181 7.62296 5.17892C7.58315 5.1668 7.54161 5.15642 7.50008 5.14776C7.45854 5.13998 7.41614 5.13305 7.37374 5.12873C7.28902 5.11999 7.20336 5.11999 7.11855 5.12873C7.07702 5.13305 7.03462 5.13998 6.99308 5.14776C6.95155 5.15633 6.91001 5.16672 6.86934 5.17892C6.82953 5.19181 6.78886 5.20574 6.74992 5.22218C6.71098 5.23862 6.67204 5.2568 6.63484 5.2767C6.59763 5.29652 6.56128 5.31815 6.5258 5.3416C6.49032 5.36488 6.45658 5.38997 6.42369 5.41688C6.39081 5.44362 6.35879 5.47304 6.32851 5.50246C6.29909 5.53284 6.26967 5.56485 6.24284 5.59774C6.21601 5.63062 6.19092 5.66437 6.16756 5.69985C6.14419 5.73532 6.12169 5.77167 6.10179 5.80888C6.08275 5.84617 6.06372 5.88511 6.04814 5.92397C6.0317 5.96291 6.01699 6.00358 6.00487 6.04338C5.99276 6.08414 5.98238 6.12568 5.97372 6.16721C5.96593 6.20866 5.95901 6.25115 5.95469 6.29268C5.95036 6.335 5.94863 6.37818 5.94863 6.42067C5.94863 6.46315 5.95036 6.50642 5.95469 6.54787C5.95901 6.59027 5.96593 6.63276 5.97372 6.67421C5.98238 6.71583 5.99276 6.75728 6.00487 6.79804C6.01699 6.83784 6.0317 6.87851 6.04814 6.91745C6.06372 6.95639 6.08275 6.99438 6.10179 7.03168C6.12169 7.06975 6.14419 7.10609 6.16756 7.14157C6.19092 7.17627 6.21601 7.2108 6.24284 7.24368C6.26967 7.27657 6.29909 7.30858 6.32851 7.33896C6.35879 7.36838 6.39081 7.39771 6.42369 7.42462C6.45658 7.45136 6.49032 7.47646 6.5258 7.49982C6.56128 7.52327 6.59763 7.5449 6.63484 7.56472C6.67204 7.58471 6.71098 7.60288 6.74992 7.61932C6.78886 7.63568 6.82953 7.64961 6.86934 7.66259C6.91001 7.67462 6.95155 7.685 6.99308 7.69365C7.03462 7.70144 7.07702 7.70836 7.11855 7.71269C7.16096 7.71702 7.20422 7.71875 7.24662 7.71875C7.28902 7.71875 7.33143 7.7171 7.37383 7.71269C7.41623 7.70836 7.45863 7.70144 7.50017 7.69365C7.5417 7.68509 7.58324 7.6747 7.62304 7.66259C7.66371 7.64961 7.70438 7.63568 7.74332 7.61932C7.78226 7.60279 7.82034 7.58462 7.85755 7.56472C7.89562 7.5449 7.93196 7.52327 7.96744 7.49982C8.00206 7.47654 8.03667 7.45145 8.06955 7.42462C8.10244 7.3978 8.13445 7.36838 8.16474 7.33896C8.19416 7.30858 8.22272 7.27657 8.25041 7.24368C8.27637 7.2108 8.30233 7.17619 8.32569 7.14157C8.34905 7.10601 8.37069 7.06966 8.39059 7.03168C8.41049 6.99447 8.42867 6.95639 8.44511 6.91745C8.46155 6.87851 8.47539 6.83784 8.48837 6.79804C8.50049 6.75728 8.51087 6.71574 8.51952 6.67421ZM13.7104 6.67421C13.7182 6.63267 13.7251 6.59027 13.7286 6.54787C13.7329 6.50642 13.7355 6.46315 13.7354 6.42067C13.7354 6.37826 13.7328 6.335 13.7285 6.29268C13.725 6.25115 13.7181 6.20866 13.7103 6.16721C13.7016 6.12559 13.6913 6.08414 13.6791 6.04338C13.6662 6.00358 13.6523 5.96291 13.6359 5.92397C13.6194 5.88511 13.6013 5.84617 13.5814 5.80888C13.5615 5.77167 13.5398 5.73532 13.5165 5.69985C13.4931 5.66437 13.4671 5.63062 13.4412 5.59774C13.4135 5.56485 13.3849 5.53284 13.3546 5.50246C13.3252 5.47304 13.2932 5.44371 13.2603 5.41688C13.2274 5.39006 13.1928 5.36496 13.1574 5.3416C13.1227 5.31815 13.0855 5.29652 13.0483 5.2767C13.0111 5.25671 12.973 5.23854 12.9341 5.22218C12.8943 5.20574 12.8545 5.19181 12.8138 5.17892C12.774 5.1668 12.7325 5.15642 12.6909 5.14776C12.6494 5.13998 12.607 5.13305 12.5646 5.12873C12.4799 5.11999 12.3942 5.11999 12.3094 5.12873C12.2679 5.13305 12.2255 5.13998 12.1839 5.14776C12.1424 5.15633 12.1009 5.16672 12.0602 5.17892C12.0204 5.19181 11.9797 5.20574 11.9408 5.22218C11.9018 5.23862 11.8629 5.2568 11.8257 5.2767C11.7885 5.29652 11.7521 5.31815 11.7167 5.3416C11.6812 5.36488 11.6466 5.38997 11.6146 5.41688C11.5817 5.44362 11.5497 5.47304 11.5194 5.50246C11.4899 5.53284 11.4605 5.56485 11.4337 5.59774C11.4069 5.63062 11.3818 5.66437 11.3584 5.69985C11.3351 5.73532 11.3126 5.77167 11.2935 5.80888C11.2736 5.84617 11.2554 5.88511 11.239 5.92397C11.2226 5.96291 11.2087 6.00358 11.1957 6.04338C11.1836 6.08414 11.1732 6.12568 11.1646 6.16721C11.1568 6.20866 11.1499 6.25115 11.1455 6.29268C11.1412 6.335 11.1395 6.37818 11.1395 6.42067C11.1395 6.46315 11.1412 6.50642 11.1455 6.54787C11.1499 6.59027 11.1568 6.63276 11.1646 6.67421C11.1732 6.71583 11.1836 6.75728 11.1957 6.79804C11.2087 6.83784 11.2226 6.87851 11.239 6.91745C11.2554 6.95639 11.2736 6.99438 11.2935 7.03168C11.3126 7.06975 11.3351 7.10609 11.3584 7.14157C11.3818 7.17627 11.4069 7.2108 11.4337 7.24368C11.4605 7.27657 11.4899 7.30858 11.5194 7.33896C11.5497 7.36838 11.5817 7.39771 11.6146 7.42462C11.6474 7.45136 11.6812 7.47646 11.7167 7.49982C11.7521 7.52327 11.7885 7.5449 11.8257 7.56472C11.8629 7.58471 11.9018 7.60288 11.9408 7.61932C11.9797 7.63568 12.0204 7.64961 12.0602 7.66259C12.1009 7.67462 12.1424 7.685 12.1839 7.69365C12.2255 7.70144 12.2679 7.70836 12.3094 7.71269C12.3518 7.71702 12.3951 7.71875 12.4375 7.71875C12.4799 7.71875 12.5223 7.7171 12.5647 7.71269C12.6071 7.70836 12.6495 7.70144 12.691 7.69365C12.7326 7.68509 12.7741 7.6747 12.8139 7.66259C12.8546 7.64961 12.8944 7.63568 12.9342 7.61932C12.9731 7.60279 13.0112 7.58462 13.0484 7.56472C13.0856 7.5449 13.1228 7.52327 13.1574 7.49982C13.1929 7.47654 13.2275 7.45145 13.2604 7.42462C13.2933 7.3978 13.3253 7.36838 13.3547 7.33896C13.385 7.30858 13.4136 7.27657 13.4413 7.24368C13.4672 7.2108 13.4932 7.17619 13.5165 7.14157C13.5399 7.10601 13.5615 7.06966 13.5814 7.03168C13.6014 6.99447 13.6195 6.95639 13.636 6.91745C13.6524 6.87851 13.6663 6.83784 13.6792 6.79804C13.6913 6.75728 13.7017 6.71574 13.7104 6.67421ZM19.5558 23.7281C20.5179 24.4331 21.7033 24.8507 22.9848 24.8507C26.1912 24.8507 28.7998 22.2421 28.7998 19.0357C28.7998 15.8292 26.1911 13.2206 22.9847 13.2206C19.7783 13.2206 17.1696 15.8292 17.1696 19.0357C17.1696 20.0231 17.4177 20.9533 17.8537 21.7685L15.0727 24.1375C14.5271 24.6022 14.4616 25.4212 14.9263 25.9669C15.1831 26.2681 15.5478 26.423 15.9149 26.423C16.2124 26.423 16.5116 26.3213 16.7558 26.1133L19.5558 23.7281Z" fill="url(#paint1_linear_1_115)"/>
<defs>
<linearGradient id="paint0_linear_1_115" x1="8.61476" y1="4.46693e-07" x2="25.7828" y2="39.0062" gradientUnits="userSpaceOnUse">
<stop stop-color="#2764E0"/>
<stop offset="1" stop-color="#DD0858"/>
</linearGradient>
<linearGradient id="paint1_linear_1_115" x1="8.61476" y1="4.46693e-07" x2="25.7828" y2="39.0062" gradientUnits="userSpaceOnUse">
<stop stop-color="#2764E0"/>
<stop offset="1" stop-color="#DD0858"/>
</linearGradient>
</defs>
</svg>
