<svg width="48" height="48" viewBox="0 0 48 48" fill="none" xmlns="http://www.w3.org/2000/svg">
<rect opacity="0.1" width="48" height="48" rx="12" fill="#21A19A"/>
<path fill-rule="evenodd" clip-rule="evenodd" d="M24.7522 11C24.2276 11 23.7603 11.2213 23.5388 11.3262C23.5162 11.3369 23.4962 11.3464 23.4789 11.3543L13.509 15.9238C13.327 16.0071 13.0969 16.1124 12.9016 16.2283C12.6613 16.3708 12.3615 16.5912 12.127 16.9566C11.8925 17.3221 11.8171 17.6864 11.7876 17.9643C11.7637 18.1901 11.7638 18.4431 11.764 18.6433L11.7639 19.3879C11.7637 19.6934 11.7635 20.0569 11.8056 20.3697C11.8563 20.7472 11.9922 21.2694 12.4353 21.7125C12.8784 22.1555 13.4006 22.2915 13.7781 22.3422C14.0908 22.3842 14.4544 22.384 14.7598 22.3838H34.7446C35.05 22.384 35.4137 22.3842 35.7264 22.3422C36.1039 22.2915 36.626 22.1555 37.0691 21.7125C37.5122 21.2694 37.6481 20.7472 37.6989 20.3697C37.7409 20.0569 37.7407 19.6933 37.7405 19.3879V18.6433C37.7406 18.4431 37.7408 18.1901 37.7168 17.9643C37.6874 17.6864 37.6119 17.3221 37.3775 16.9566C37.1429 16.5912 36.8431 16.3708 36.6028 16.2283C36.4076 16.1124 36.1774 16.0071 35.9955 15.9238L26.0255 11.3543C26.0083 11.3464 25.9885 11.337 25.966 11.3264C25.7445 11.2215 25.2769 11 24.7522 11ZM14.82 18.6847L24.7522 14.1325L34.6844 18.6847V19.3277H14.82V18.6847Z" fill="#21A19A"/>
<path d="M15.5838 23.9121V33.8443H17.8759V23.9121H20.9319V33.8443H23.224V23.9121H26.28V33.8443H28.5721V23.9121H31.6281V33.8443H33.9202V23.9121H36.9762V33.8443C37.8202 33.8443 38.5043 34.5285 38.5043 35.3723C38.5043 36.2163 37.8202 36.9004 36.9762 36.9004H12.5278C11.6839 36.9004 10.9998 36.2163 10.9998 35.3723C10.9998 34.5285 11.6839 33.8443 12.5278 33.8443V23.9121H15.5838Z" fill="#21A19A"/>
</svg>
