<svg width="48" height="48" viewBox="0 0 48 48" fill="none" xmlns="http://www.w3.org/2000/svg">
<rect opacity="0.1" width="48" height="48" rx="12" fill="#21BA72"/>
<path d="M21.3335 24.6673C21.3335 23.9309 21.9304 23.334 22.6668 23.334H24.0002C24.7366 23.334 25.3335 23.9309 25.3335 24.6673C25.3335 25.4037 24.7366 26.0007 24.0002 26.0007H22.6668C21.9304 26.0007 21.3335 25.4037 21.3335 24.6673Z" fill="#21BA72"/>
<path fill-rule="evenodd" clip-rule="evenodd" d="M24.0429 12H22.6242C22.0394 12 21.5347 12 21.117 12.0285C20.6773 12.0585 20.2374 12.1245 19.8028 12.3045C18.8227 12.7105 18.044 13.4892 17.638 14.4693C17.458 14.9038 17.392 15.3437 17.362 15.7835C17.3572 15.8542 17.3532 15.9273 17.3499 16.003C17.3496 16.008 17.3494 16.0131 17.3492 16.0181C16.9572 16.0306 16.5968 16.0517 16.2681 16.0873C15.4202 16.1792 14.6272 16.3803 13.9239 16.8913C13.5277 17.1791 13.1793 17.5275 12.8915 17.9237C12.3805 18.627 12.1795 19.4199 12.0876 20.2679C12.0002 21.0746 12.0002 22.0727 12.0002 23.2611V30.6667H12.0189C12.0314 31.0527 12.0525 31.4079 12.0876 31.7321C12.1794 32.5801 12.3805 33.3731 12.8915 34.0763C13.1793 34.4725 13.5277 34.8209 13.9239 35.1087C14.6272 35.6197 15.4202 35.8208 16.2681 35.9127C17.0748 36.0001 18.073 36.0001 19.2613 36H27.4057C28.5941 36.0001 29.5924 36.0001 30.399 35.9127C31.247 35.8208 32.04 35.6197 32.7432 35.1087C33.1394 34.8209 33.4878 34.4725 33.7756 34.0763C34.2866 33.3731 34.4877 32.5801 34.5796 31.7321C34.6147 31.4079 34.6357 31.0527 34.6482 30.6667H34.6669V23.2611C34.667 22.0728 34.667 21.0746 34.5796 20.2679C34.4877 19.4199 34.2866 18.627 33.7756 17.9237C33.4878 17.5275 33.1394 17.1791 32.7432 16.8913C32.04 16.3803 31.247 16.1792 30.399 16.0873C30.0704 16.0517 29.71 16.0306 29.3179 16.0181C29.3144 15.9371 29.3102 15.8589 29.3051 15.7835C29.2751 15.3437 29.2091 14.9038 29.0291 14.4693C28.6231 13.4892 27.8444 12.7105 26.8643 12.3045C26.4297 12.1245 25.9898 12.0585 25.5501 12.0285C25.1324 12 24.6278 12 24.0429 12ZM26.6469 16L26.6446 15.965C26.6239 15.661 26.5884 15.5452 26.5654 15.4898C26.4301 15.1631 26.1705 14.9035 25.8438 14.7682C25.7883 14.7452 25.6726 14.7097 25.3686 14.6889C25.0526 14.6674 24.6398 14.6667 24.0002 14.6667H22.6669C22.0274 14.6667 21.6146 14.6674 21.2986 14.6889C20.9946 14.7097 20.8788 14.7452 20.8233 14.7682C20.4966 14.9035 20.237 15.1631 20.1017 15.4898C20.0788 15.5452 20.0432 15.661 20.0225 15.965L20.0202 16H26.6469ZM14.7387 20.5551C14.6687 21.2011 14.6669 22.0537 14.6669 23.3333V28H32.0002V23.3333C32.0002 22.0537 31.9984 21.2011 31.9284 20.5551C31.8611 19.9341 31.7439 19.6641 31.6183 19.4911C31.4949 19.3213 31.3456 19.172 31.1758 19.0487C31.0029 18.923 30.7328 18.8058 30.1118 18.7385C29.4658 18.6685 28.6132 18.6667 27.3336 18.6667H19.3336C18.054 18.6667 17.2014 18.6685 16.5554 18.7385C15.9343 18.8058 15.6643 18.923 15.4913 19.0487C15.3216 19.172 15.1722 19.3213 15.0489 19.4911C14.9232 19.664 14.806 19.9341 14.7387 20.5551ZM14.6869 30.6667C14.6975 30.9589 14.7138 31.2149 14.7387 31.4449C14.806 32.0659 14.9232 32.336 15.0489 32.5089C15.1722 32.6787 15.3216 32.828 15.4913 32.9514C15.6643 33.077 15.9343 33.1942 16.5554 33.2615C17.2014 33.3315 18.054 33.3333 19.3336 33.3333H27.3336C28.6132 33.3333 29.4658 33.3315 30.1118 33.2615C30.7328 33.1942 31.0029 33.077 31.1758 32.9514C31.3456 32.828 31.4949 32.6787 31.6183 32.5089C31.7439 32.336 31.8611 32.0659 31.9284 31.4449C31.9533 31.2149 31.9696 30.9589 31.9802 30.6667H14.6869Z" fill="#21BA72"/>
</svg>
