<svg width="48" height="48" viewBox="0 0 48 48" fill="none" xmlns="http://www.w3.org/2000/svg">
<rect opacity="0.1" width="48" height="48" rx="12" fill="#F79009"/>
<path d="M25.698 28.0123C25.698 27.2558 26.3112 26.6426 27.0677 26.6426H29.8072C30.5638 26.6426 31.177 27.2558 31.177 28.0123C31.177 28.7688 30.5638 29.3821 29.8072 29.3821H27.0677C26.3112 29.3821 25.698 28.7688 25.698 28.0123Z" fill="#F79009"/>
<path fill-rule="evenodd" clip-rule="evenodd" d="M35.1962 29.792C35.286 28.9633 35.286 27.9379 35.2859 26.717V22.4594C35.286 21.2387 35.286 20.2132 35.1962 19.3844C35.1019 18.5133 34.8953 17.6987 34.3703 16.9762C34.0747 16.5692 33.7168 16.2113 33.3097 15.9156C32.5873 15.3907 31.7726 15.1841 30.9015 15.0897C30.0728 14.9999 29.0474 15 27.8265 15H19.4597C18.2388 15 17.2134 14.9999 16.3847 15.0897C15.5136 15.1841 14.6989 15.3907 13.9765 15.9156C13.5695 16.2113 13.2115 16.5692 12.9158 16.9762C12.3909 17.6987 12.1843 18.5133 12.09 19.3844C12.0002 20.2131 12.0002 21.2385 12.0002 22.4594V26.717C12.0002 27.9378 12.0002 28.9633 12.09 29.792C12.1843 30.6631 12.3909 31.4778 12.9158 32.2003C13.2115 32.6073 13.5695 32.9652 13.9765 33.2609C14.6989 33.7858 15.5136 33.9924 16.3847 34.0867C17.2134 34.1765 18.2388 34.1765 19.4596 34.1765H27.8264C29.0473 34.1765 30.0728 34.1765 30.9015 34.0867C31.7726 33.9924 32.5873 33.7858 33.3097 33.2609C33.7168 32.9652 34.0747 32.6073 34.3703 32.2003C34.8953 31.4778 35.1019 30.6631 35.1962 29.792ZM32.1541 18.5864C32.2831 18.7641 32.4035 19.0415 32.4727 19.6795C32.4982 19.9157 32.515 20.1788 32.5259 20.479H14.7603C14.7712 20.1788 14.7879 19.9157 14.8135 19.6795C14.8826 19.0415 15.0031 18.7641 15.1321 18.5864C15.2589 18.412 15.4123 18.2586 15.5867 18.1319C15.7643 18.0028 16.0418 17.8824 16.6798 17.8133C17.3434 17.7413 18.2193 17.7395 19.5339 17.7395H27.7523C29.0669 17.7395 29.9428 17.7414 30.6064 17.8133C31.2444 17.8824 31.5219 18.0028 31.6995 18.1319C31.8739 18.2586 32.0273 18.412 32.1541 18.5864ZM32.5464 23.2185H14.7397V26.6428C14.7397 27.9574 14.7416 28.8333 14.8135 29.4969C14.8826 30.135 15.0031 30.4124 15.1321 30.59C15.2589 30.7644 15.4123 30.9178 15.5867 31.0446C15.7643 31.1736 16.0418 31.294 16.6798 31.3632C17.3434 31.4351 18.2193 31.437 19.5339 31.437H27.7523C29.0669 31.437 29.9428 31.4351 30.6064 31.3632C31.2444 31.294 31.5219 31.1736 31.6995 31.0446C31.8739 30.9178 32.0273 30.7644 32.1541 30.59C32.2831 30.4124 32.4035 30.135 32.4727 29.4969C32.5446 28.8333 32.5464 27.9574 32.5464 26.6428V23.2185Z" fill="#F79009"/>
</svg>
