<svg width="48" height="48" viewBox="0 0 48 48" fill="none" xmlns="http://www.w3.org/2000/svg">
<rect opacity="0.1" width="48" height="48" rx="12" fill="#279BF0"/>
<path fill-rule="evenodd" clip-rule="evenodd" d="M20.723 29.4226C22.0327 30.2321 23.5548 30.6525 25.1043 30.6326C26.6539 30.6128 28.1642 30.1538 29.4519 29.3112C30.7395 28.4685 31.7488 27.2787 32.3573 25.8861C32.9659 24.4936 33.1474 22.9583 32.8798 21.4669C32.6122 19.9755 31.907 18.5921 30.85 17.4848C29.7929 16.3776 28.4294 15.5942 26.9253 15.2298C25.4211 14.8653 23.841 14.9356 22.377 15.4321C20.9129 15.9285 19.628 16.8297 18.6783 18.0262C17.5903 19.3969 17 20.9311 17 23.9468V35H20.723V29.4226ZM20.723 22.8159C20.7222 23.8559 21.1173 24.859 21.8316 25.63C22.5458 26.4012 23.5281 26.8851 24.5873 26.9876C25.6465 27.0902 26.7069 26.804 27.5622 26.1849C28.4174 25.5658 29.0064 24.658 29.2145 23.6381C29.4225 22.6181 29.2348 21.5591 28.6879 20.6669C28.141 19.7747 27.274 19.1132 26.2555 18.8111C25.237 18.5089 24.1399 18.5878 23.1776 19.0323C22.2154 19.4769 21.4568 20.2553 21.0494 21.2161C20.8343 21.7232 20.7234 22.2669 20.723 22.8159Z" fill="#279BF0"/>
</svg>
