<svg width="48" height="48" viewBox="0 0 48 48" fill="none" xmlns="http://www.w3.org/2000/svg">
<rect opacity="0.1" width="48" height="48" rx="12" fill="#337BFF"/>
<path d="M20.7119 18.377C19.9603 18.377 19.3511 18.9862 19.3511 19.7377C19.3511 20.4893 19.9603 21.0985 20.7119 21.0985H28.8766C29.6281 21.0985 30.2373 20.4893 30.2373 19.7377C30.2373 18.9862 29.6281 18.377 28.8766 18.377H20.7119Z" fill="#337BFF"/>
<path d="M20.7119 23.1406C19.9603 23.1406 19.3511 23.7498 19.3511 24.5014C19.3511 25.253 19.9603 25.8622 20.7119 25.8622H28.8766C29.6281 25.8622 30.2373 25.253 30.2373 24.5014C30.2373 23.7498 29.6281 23.1406 28.8766 23.1406H20.7119Z" fill="#337BFF"/>
<path d="M19.3511 29.2631C19.3511 28.5116 19.9603 27.9023 20.7119 27.9023H24.7942C25.5458 27.9023 26.155 28.5116 26.155 29.2631C26.155 30.0147 25.5458 30.6239 24.7942 30.6239H20.7119C19.9603 30.6239 19.3511 30.0147 19.3511 29.2631Z" fill="#337BFF"/>
<path fill-rule="evenodd" clip-rule="evenodd" d="M27.5895 12.9336H21.999C20.7861 12.9336 19.7675 12.9335 18.9441 13.0227C18.0787 13.1165 17.2694 13.3217 16.5517 13.8432C16.1473 14.137 15.7917 14.4925 15.498 14.8969C14.9765 15.6146 14.7713 16.424 14.6775 17.2894C14.5883 18.1127 14.5883 19.1314 14.5884 20.3442V28.6563C14.5883 29.8692 14.5883 30.8878 14.6775 31.7112C14.7713 32.5766 14.9765 33.3859 15.498 34.1036C15.7917 34.508 16.1473 34.8636 16.5517 35.1573C17.2694 35.6788 18.0787 35.884 18.9441 35.9778C19.7675 36.067 20.7861 36.067 21.999 36.0669H27.5895C28.8024 36.067 29.8211 36.067 30.6444 35.9778C31.5098 35.884 32.3191 35.6788 33.0369 35.1573C33.4412 34.8636 33.7968 34.508 34.0905 34.1036C34.612 33.3859 34.8172 32.5766 34.911 31.7112C35.0002 30.8879 35.0002 29.8692 35.0001 28.6564V20.3443C35.0002 19.1314 35.0002 18.1126 34.911 17.2894C34.8172 16.424 34.612 15.6146 34.0905 14.8969C33.7968 14.4925 33.4412 14.137 33.0369 13.8432C32.3191 13.3217 31.5098 13.1165 30.6444 13.0227C29.8211 12.9335 28.8024 12.9336 27.5895 12.9336ZM18.1513 16.045C18.3279 15.9168 18.6034 15.7971 19.2373 15.7285C19.8966 15.657 20.7667 15.6552 22.0727 15.6552H27.5158C28.8218 15.6552 29.6919 15.657 30.3512 15.7285C30.9851 15.7971 31.2607 15.9168 31.4372 16.045C31.6104 16.1709 31.7628 16.3233 31.8888 16.4966C32.017 16.6731 32.1366 16.9487 32.2053 17.5825C32.2767 18.2418 32.2786 19.112 32.2786 20.4179V28.5826C32.2786 29.8886 32.2767 30.7587 32.2053 31.418C32.1366 32.0519 32.017 32.3275 31.8888 32.504C31.7628 32.6772 31.6104 32.8296 31.4372 32.9556C31.2607 33.0837 30.9851 33.2034 30.3512 33.2721C29.6919 33.3435 28.8218 33.3454 27.5158 33.3454H22.0727C20.7667 33.3454 19.8966 33.3435 19.2373 33.2721C18.6034 33.2034 18.3279 33.0837 18.1513 32.9556C17.9781 32.8296 17.8257 32.6772 17.6998 32.504C17.5716 32.3275 17.4519 32.0519 17.3832 31.418C17.3118 30.7587 17.3099 29.8886 17.3099 28.5826V20.4179C17.3099 19.112 17.3118 18.2418 17.3832 17.5825C17.4519 16.9487 17.5716 16.6731 17.6998 16.4966C17.8257 16.3233 17.9781 16.1709 18.1513 16.045Z" fill="#337BFF"/>
</svg>
