<svg width="48" height="48" viewBox="0 0 48 48" fill="none" xmlns="http://www.w3.org/2000/svg">
<path fill-rule="evenodd" clip-rule="evenodd" d="M35.3262 16.9297C36.326 18.0519 36.1985 19.7478 35.0412 20.7172L20.3806 33L12.9253 26.5474C11.7842 25.56 11.6849 23.8623 12.7033 22.756C13.7217 21.6496 15.4723 21.5533 16.6132 22.5407L20.44 25.8527L31.4204 16.6533C32.5776 15.6838 34.3263 15.8076 35.3262 16.9297Z" fill="#21BA72"/>
<path fill-rule="evenodd" clip-rule="evenodd" d="M0 24C0 10.7452 10.7452 0 24 0C37.2549 0 48 10.7452 48 24C48 37.2549 37.2549 48 24 48C10.7452 48 0 37.2549 0 24ZM24 5.33333C13.6907 5.33333 5.33333 13.6907 5.33333 24C5.33333 34.3092 13.6907 42.6667 24 42.6667C34.3092 42.6667 42.6667 34.3092 42.6667 24C42.6667 13.6907 34.3092 5.33333 24 5.33333Z" fill="#21BA72"/>
</svg>
