<svg width="386" height="32" viewBox="0 0 386 32" fill="none" xmlns="http://www.w3.org/2000/svg">
<g clip-path="url(#clip0_1211_966)">
<path d="M219.011 24.2263V21.5476C218.325 22.8632 216.793 23.9093 214.496 23.9093C211.559 23.9093 209.916 22.2767 209.916 18.758V18.6788C209.916 15.2869 211.528 13.5592 214.432 13.5592C216.315 13.5592 217.926 14.6053 218.868 16.1428V12.8935C217.958 12.212 216.283 11.5779 214.432 11.5779C210.522 11.5779 207.587 13.9237 207.587 18.6788C207.587 23.4972 210.108 25.8906 214.496 25.8906C216.857 25.9064 218.373 25.0822 219.011 24.2263ZM199.146 13.5751C201.331 13.5751 202.975 14.954 202.975 17.601V17.6327H194.677C194.981 14.954 196.545 13.5751 199.146 13.5751ZM199.146 11.5938C195.236 11.5938 192.3 13.9396 192.3 18.6946C192.3 23.513 194.821 25.9064 199.209 25.9064C201.922 25.9064 203.613 25.0822 204.315 24.2263V21.5476C203.565 22.8632 201.874 23.9093 199.209 23.9093C196.497 23.9093 194.885 22.5303 194.661 19.5505H205.273V18.0606C205.273 14.0189 202.975 11.5938 199.146 11.5938ZM186.62 25.6369H188.917V11.8632H186.62V17.6168H179.295V11.8632H176.998V25.6369H179.295V19.6932H186.62V25.6369ZM162.844 24.2263C163.562 25.0822 165.333 25.9064 167.918 25.9064C170.998 25.9064 173.519 24.5592 173.519 21.4525C173.519 19.6298 172.514 18.6788 170.695 18.3142C172.051 17.6802 172.833 16.9036 172.833 15.1759C172.833 13.0044 171.636 11.5938 168.126 11.5938H168.078C165.94 11.5938 164.057 12.2278 163.004 12.9093V16.1586C164.089 14.6212 165.908 13.5751 168.078 13.5751C169.849 13.6226 170.519 14.2883 170.519 15.588C170.519 17.1255 169.275 17.7912 167.519 17.7912H165.86V19.6139H167.934C170.104 19.6139 171.237 20.137 171.237 21.5952C171.237 23.1326 169.849 23.9093 167.934 23.941C165.413 23.941 163.642 22.8949 162.86 21.5793V24.2263H162.844ZM149.153 25.6369L149.409 25.3041L156.956 15.3027V25.6369H159.254V11.8632H157.228L149.409 22.1024V11.8632H147.111V25.6369H149.153ZM135 15.1601C138.989 15.1601 140.76 16.1586 140.76 19.0433C140.76 22.2609 138.766 23.4179 135.08 23.4179H131.362V15.1601H135ZM128.873 25.6369H135.159C140.457 25.6369 143.361 23.4655 143.361 19.2177C143.361 14.8906 140.585 12.9728 135.159 12.9728H131.362V8.56645H142.149V6.36328H128.873V25.6369Z" fill="#21A038"/>
<path fill-rule="evenodd" clip-rule="evenodd" d="M52.3357 22.3637C53.6163 22.3637 54.8573 22.0521 55.9226 21.4638L56.8439 20.9603C56.8439 20.9603 58.1646 21.9344 59.5328 22.9435C57.76 24.8461 55.1444 25.8912 52.1484 25.8912C49.2849 25.8912 46.6734 24.8789 44.7948 23.041C42.9225 21.2094 41.8909 18.6708 41.8909 15.8938C41.8909 13.1294 42.9257 10.6279 44.8052 8.85041C46.6734 7.08241 49.2913 6.10938 52.1748 6.10938C54.8329 6.10938 57.1584 6.9181 58.8983 8.44869L59.0956 8.62146L56.1155 10.8198C55.0237 10.0344 53.7527 9.63583 52.3357 9.63583C48.5902 9.63583 45.8705 12.3122 45.8705 15.9998C45.8705 19.6873 48.5891 22.3637 52.3357 22.3637ZM72.2685 13.8751H67.2116V9.57069H75.2844L79.6349 6.36116H63.0563V25.6363H71.7326C76.5987 25.6363 79.3902 23.4295 79.3902 19.5808C79.3902 15.9018 76.8602 13.8751 72.2685 13.8751ZM71.545 22.4268H67.2116V17.0836H71.545C74.183 17.0836 75.4115 17.9771 75.4115 19.7547C75.4106 21.5714 74.11 22.4268 71.545 22.4268ZM97.8199 6.36116L93.4697 9.57069H87.4144V14.2832H96.2897V17.4927H87.4144V22.4268H97.8199V25.6363H83.2588V6.36116H97.8199ZM101.688 6.36116H109.616C114.676 6.36116 117.818 9.00468 117.818 13.2593C117.818 17.5139 114.675 20.1765 109.616 20.1765H105.844V25.6363H101.688V6.36116ZM105.844 16.967H109.527C112.191 16.967 113.656 15.6537 113.656 13.2689C113.656 10.8839 112.19 9.57069 109.527 9.57069H105.844V16.967Z" fill="#21A038"/>
<path d="M3.69533 15.9996C3.69533 15.7932 3.70063 15.5888 3.71121 15.3845L0.0201181 15.2002C0.00741207 15.4649 0 15.7317 0 15.9996C0 20.4181 1.79048 24.4184 4.6864 27.3132L7.30382 24.6958C5.07497 22.468 3.69533 19.3921 3.69533 15.9996Z" fill="url(#paint0_linear_1211_966)"/>
<path d="M15.9989 3.69638C16.2053 3.69638 16.4097 3.7038 16.6141 3.71331L16.7983 0.0201181C16.5336 0.00741207 16.2667 0 15.9989 0C11.5804 0 7.58008 1.79048 4.68524 4.68637L7.30267 7.30382C9.53045 5.07604 12.6074 3.69638 15.9989 3.69638Z" fill="url(#paint1_linear_1211_966)"/>
<path d="M15.999 28.3048C15.7925 28.3048 15.5882 28.2995 15.3838 28.2889L15.1996 31.98C15.4643 31.9926 15.7311 32.0001 15.999 32.0001C20.4175 32.0001 24.4178 30.2096 27.3126 27.3137L24.6952 24.6963C22.4674 26.9241 19.3915 28.3048 15.999 28.3048Z" fill="url(#paint2_linear_1211_966)"/>
<path d="M22.9353 5.8437L26.0472 3.55025C23.3006 1.33095 19.8054 0 15.9989 0V3.69638C18.5708 3.69638 20.9595 4.48945 22.9353 5.8437Z" fill="url(#paint3_linear_1211_966)"/>
<path d="M31.9989 16.0001C31.9989 15.0217 31.911 14.0634 31.7429 13.1338L28.2984 15.6718C28.3016 15.7809 28.3026 15.8899 28.3026 16.0001C28.3026 19.6128 26.7377 22.8666 24.2494 25.1198L26.7324 27.8643C29.9672 24.9377 31.9989 20.7066 31.9989 16.0001Z" fill="#21A038"/>
<path d="M15.9989 28.3042C12.3862 28.3042 9.13238 26.7392 6.87917 24.251L4.13467 26.7339C7.06235 29.9675 11.2935 31.9995 15.9989 31.9995V28.3042Z" fill="url(#paint4_linear_1211_966)"/>
<path d="M7.74854 6.88024L5.26557 4.13574C2.0319 7.06342 0 11.2945 0 15.9999H3.69638C3.69533 12.3872 5.26028 9.13344 7.74854 6.88024Z" fill="url(#paint5_linear_1211_966)"/>
<path d="M28.6604 6.21875C29.4164 7.19501 30.0623 8.26125 30.578 9.39949L15.9989 20.1435L9.90851 16.3253V11.7321L15.9989 15.5502L28.6604 6.21875Z" fill="#21A038"/>
<path fill-rule="evenodd" clip-rule="evenodd" d="M235.511 32C235.235 32 235.011 31.7761 235.011 31.5V0.5C235.011 0.223858 235.235 1.20706e-08 235.511 0C235.788 -1.20705e-08 236.011 0.223858 236.011 0.5V31.5C236.011 31.7761 235.788 32 235.511 32Z" fill="#E1E1EE"/>
<path d="M381.865 11.5052L363.211 0.703225C361.59 -0.234408 359.656 -0.234408 358.038 0.703225C356.417 1.64086 355.45 3.32053 355.45 5.19781V10.7672H359.401V4.06459C359.401 3.61694 359.885 3.33465 360.273 3.56048L380.954 15.536C381.342 15.7598 381.342 16.3204 380.954 16.5462L360.273 28.5217C359.885 28.7455 359.401 28.4652 359.401 28.0176V18.367C359.401 18.0444 359.66 17.7843 359.982 17.7843H364.62L369.88 13.8785V13.8462H360.682C357.796 13.8462 355.45 16.1994 355.45 19.0929V26.8017C355.45 28.6769 356.417 30.3586 358.038 31.2963C358.848 31.7661 359.737 32 360.625 32C361.514 32 362.403 31.7661 363.213 31.2963L381.867 20.4943C383.488 19.5567 384.455 17.877 384.455 15.9997C384.455 14.1225 383.486 12.4428 381.865 11.5052Z" fill="#21BA72"/>
<path d="M324.863 21.8468C325.291 21.682 325.747 21.6035 326.204 21.6154C326.977 21.6314 327.724 21.9041 328.331 22.393L327.648 22.8959C327.235 22.6137 326.754 22.4525 326.259 22.4285C326.242 22.4277 326.225 22.4272 326.209 22.4266C326.18 22.4257 326.152 22.4254 326.123 22.4254C325.454 22.4239 324.809 22.6732 324.311 23.1232C323.795 23.5891 323.46 24.2501 323.424 24.9881C323.421 25.033 323.42 25.0778 323.42 25.123C323.42 25.8225 323.688 26.4604 324.127 26.9402C324.381 27.2174 324.688 27.4386 325.03 27.5901C325.334 27.7248 325.658 27.8018 325.988 27.8178C326.031 27.8199 326.074 27.8208 326.117 27.8209H326.124C326.793 27.8222 327.438 27.5724 327.937 27.1224C328.483 26.6285 328.826 25.8425 328.826 25.0508C328.826 25.0326 328.826 25.0865 328.826 25.0684V25.0508L329.582 24.4943C329.619 24.6983 329.639 24.9084 329.639 25.123C329.639 26.0917 329.245 26.9688 328.609 27.6034C328.259 27.952 327.843 28.2231 327.384 28.3993C326.946 28.5681 326.478 28.6463 326.009 28.6296C325.559 28.6161 325.115 28.5152 324.701 28.3319C324.305 28.1567 323.945 27.9096 323.638 27.6033C323.002 26.9687 322.608 26.0915 322.608 25.123C322.608 24.091 323.054 23.1631 323.765 22.5213C324.087 22.2306 324.459 22.002 324.863 21.8468Z" fill="#2D3045"/>
<path d="M343.084 23.7149L344.04 23.0118H340.841V27.234H344.04V26.5314H341.754V25.4503H343.704V24.7474H341.754V23.7151L343.084 23.7149Z" fill="#2D3045"/>
<path fill-rule="evenodd" clip-rule="evenodd" d="M338.427 24.6578H337.316V23.7149H339.089L340.045 23.0118H336.403V27.234H338.309C339.378 27.234 339.991 26.7505 339.991 25.9076C339.991 25.1019 339.436 24.6578 338.427 24.6578ZM338.268 26.531H337.316V25.3606H338.268C338.847 25.3606 339.117 25.5566 339.117 25.9459C339.117 26.3436 338.832 26.531 338.268 26.531Z" fill="#2D3045"/>
<path fill-rule="evenodd" clip-rule="evenodd" d="M346.631 23.0117H344.89V27.2336H345.802V26.0379H346.631C347.743 26.0379 348.433 25.4546 348.433 24.5225C348.433 23.5906 347.742 23.0117 346.631 23.0117ZM346.612 25.3348H345.802V23.7145H346.612C347.197 23.7145 347.519 24.0021 347.519 24.5245C347.519 25.047 347.196 25.3348 346.612 25.3348Z" fill="#2D3045"/>
<path d="M335.038 26.209C334.804 26.3378 334.33 26.5166 334.048 26.5166C333.225 26.5166 332.628 25.9304 332.628 25.1226C332.628 24.3148 333.225 23.7286 334.048 23.7286C334.36 23.7286 334.639 23.816 334.879 23.9878L335.533 23.5064C335.151 23.1711 334.597 22.956 334.013 22.956C333.379 22.956 332.804 23.1692 332.394 23.5561C331.981 23.9457 331.754 24.4934 331.754 25.099C331.754 25.7072 331.98 26.2632 332.392 26.6645C332.804 27.0672 333.378 27.289 334.007 27.289C334.665 27.289 335.24 27.06 335.629 26.6434L335.038 26.209Z" fill="#2D3045"/>
<path d="M328.905 22.9775C329.071 23.1917 329.213 23.4257 329.326 23.675L326.124 26.031L324.785 25.1937V24.1868L326.124 25.0239L328.905 22.9775Z" fill="#2D3045"/>
<path d="M253.074 13.0464C253.214 12.7069 253.34 12.3344 253.452 11.9289C253.573 11.5234 253.676 11.0708 253.759 10.571C253.853 10.0618 253.927 9.50066 253.983 8.88771C254.039 8.26532 254.072 7.57693 254.081 6.82252L254.109 4.77148H260.989V13.0464H262.122V16.5119H260.486V14.6731H253.648V16.5119H252.011V13.0464H253.074ZM255.703 6.86496C255.647 9.42994 255.34 11.4904 254.78 13.0464H259.241V6.39817H255.703V6.86496Z" fill="#21BA72"/>
<path d="M268.958 13.9662C268.874 14.0699 268.753 14.1737 268.595 14.2774C268.436 14.3717 268.245 14.4613 268.021 14.5461C267.798 14.631 267.546 14.697 267.266 14.7442C266.996 14.7913 266.702 14.8149 266.385 14.8149C265.22 14.8243 264.316 14.5179 263.672 13.8955C263.029 13.2637 262.708 12.3348 262.708 11.1089C262.708 10.5242 262.791 10.0056 262.959 9.55293C263.136 9.09086 263.383 8.70422 263.7 8.39303C264.017 8.08184 264.39 7.84609 264.819 7.68578C265.257 7.52546 265.742 7.44531 266.273 7.44531C267.29 7.45474 268.082 7.76122 268.651 8.36474C269.229 8.96826 269.518 9.8264 269.518 10.9391V11.6181H264.33C264.46 12.7969 265.164 13.3863 266.441 13.3863C267.085 13.3863 267.616 13.2778 268.035 13.0609C268.464 12.844 268.772 12.58 268.958 12.2688V13.9662ZM266.231 8.88811C265.7 8.88811 265.276 9.02013 264.959 9.28417C264.642 9.54821 264.442 9.93485 264.358 10.4441H267.882C267.863 9.96314 267.709 9.58593 267.42 9.31246C267.131 9.02956 266.735 8.88811 266.231 8.88811Z" fill="#21BA72"/>
<path d="M275.136 9.05747H272.871L272.829 9.94861C272.782 11.0519 272.684 11.9242 272.535 12.5654C272.395 13.2067 272.218 13.6923 272.004 14.0224C271.789 14.343 271.552 14.5457 271.291 14.6306C271.03 14.7155 270.764 14.7579 270.494 14.7579C270.363 14.7579 270.232 14.7485 270.102 14.7296C269.981 14.7202 269.883 14.7061 269.808 14.6872V12.9756C269.92 13.0134 270.041 13.0322 270.172 13.0322C270.321 13.0322 270.461 13.0039 270.591 12.9474C270.731 12.8813 270.852 12.721 270.955 12.4664C271.058 12.2118 271.141 11.8252 271.207 11.3065C271.281 10.7879 271.333 10.0665 271.361 9.14233L271.416 7.60052H276.758V14.6731H275.136V9.05747Z" fill="#21BA72"/>
<path d="M281.597 14.8291C281.047 14.8291 280.553 14.7536 280.115 14.6027C279.676 14.4424 279.299 14.2067 278.982 13.8955C278.665 13.5843 278.423 13.1977 278.255 12.7356C278.087 12.2735 278.003 11.7313 278.003 11.1089C278.003 10.4959 278.092 9.96314 278.269 9.51049C278.446 9.04842 278.693 8.6665 279.01 8.36474C279.327 8.05355 279.709 7.82251 280.157 7.67163C280.604 7.52075 281.103 7.44531 281.653 7.44531C282.194 7.44531 282.683 7.52546 283.121 7.68578C283.569 7.84609 283.946 8.08184 284.254 8.39303C284.571 8.70422 284.813 9.09086 284.981 9.55293C285.149 10.015 285.233 10.5525 285.233 11.1655C285.233 11.7784 285.144 12.3159 284.967 12.778C284.79 13.2307 284.543 13.6079 284.226 13.9096C283.909 14.2114 283.527 14.4424 283.079 14.6027C282.632 14.7536 282.138 14.8291 281.597 14.8291ZM279.667 11.1513C279.667 11.934 279.84 12.5045 280.185 12.8629C280.529 13.2118 281.01 13.3863 281.625 13.3863C282.25 13.3863 282.73 13.2071 283.065 12.8487C283.401 12.481 283.569 11.9199 283.569 11.1655V11.123C283.569 10.3403 283.392 9.77454 283.037 9.42562C282.692 9.06728 282.212 8.88811 281.597 8.88811C280.972 8.89754 280.492 9.08614 280.157 9.45391C279.83 9.81226 279.667 10.3639 279.667 11.1089V11.1513Z" fill="#21BA72"/>
<path d="M286.461 7.60052H289.985C290.824 7.60052 291.42 7.74198 291.775 8.02488C292.129 8.29835 292.306 8.70383 292.306 9.24135C292.306 9.6657 292.199 10.0193 291.985 10.3022C291.779 10.5757 291.486 10.7596 291.104 10.8539C291.327 10.8822 291.532 10.934 291.719 11.0095C291.915 11.0755 292.078 11.1745 292.208 11.3065C292.348 11.4385 292.455 11.6083 292.53 11.8157C292.614 12.0232 292.656 12.2778 292.656 12.5796C292.656 13.2585 292.432 13.7772 291.985 14.1355C291.546 14.4939 290.866 14.6731 289.943 14.6731H286.461V7.60052ZM289.789 13.301C290.227 13.301 290.544 13.235 290.74 13.103C290.936 12.9615 291.034 12.7493 291.034 12.4664C291.034 12.1552 290.936 11.9431 290.74 11.8299C290.553 11.7073 290.269 11.646 289.887 11.646H288.097V13.301H289.789ZM289.593 10.4578C289.92 10.4578 290.181 10.4012 290.376 10.2881C290.572 10.1655 290.67 9.95333 290.67 9.65157C290.67 9.38752 290.581 9.20834 290.404 9.11404C290.227 9.01974 289.961 8.97259 289.607 8.97259L288.097 8.98674V10.4578H289.593Z" fill="#21BA72"/>
<path d="M294.037 8.09558C294.27 7.91641 294.592 7.76553 295.002 7.64294C295.422 7.52035 295.935 7.45905 296.541 7.45905C297.566 7.45905 298.33 7.65236 298.834 8.03899C299.337 8.42563 299.589 9.08103 299.589 10.0052V14.6731H298.051V13.4C297.883 13.8149 297.594 14.1497 297.184 14.4043C296.783 14.6589 296.303 14.7862 295.743 14.7862C295.035 14.7862 294.48 14.5976 294.079 14.2204C293.688 13.8338 293.492 13.2916 293.492 12.5937C293.492 12.1882 293.562 11.8535 293.702 11.5894C293.842 11.3254 294.037 11.1179 294.289 10.967C294.541 10.8067 294.844 10.6936 295.198 10.6276C295.552 10.5615 295.944 10.5285 296.373 10.5285H297.953V10.2173C297.953 9.71756 297.832 9.37336 297.589 9.18476C297.356 8.99616 297.007 8.90184 296.541 8.90184C295.897 8.90184 295.38 9.01973 294.988 9.25548C294.597 9.4818 294.28 9.78357 294.037 10.1608V8.09558ZM296.261 13.301C296.541 13.301 296.778 13.268 296.974 13.202C297.179 13.1265 297.352 13.0369 297.491 12.9332C297.631 12.82 297.739 12.6975 297.813 12.5654C297.888 12.4334 297.934 12.3061 297.953 12.1835V11.6036H296.569C296.084 11.6036 295.725 11.6601 295.492 11.7733C295.259 11.8865 295.142 12.1034 295.142 12.424C295.142 12.6975 295.235 12.9143 295.422 13.0747C295.618 13.2255 295.897 13.301 296.261 13.301Z" fill="#21BA72"/>
<path d="M305.448 12.3391H303.825L302.413 14.6731H300.609L302.231 12.1128C301.812 11.9431 301.495 11.6932 301.28 11.3631C301.066 11.0236 300.959 10.6228 300.959 10.1608C300.959 9.27435 301.21 8.62839 301.714 8.2229C302.217 7.80798 303.014 7.60052 304.105 7.60052H307.084V14.6731H305.448V12.3391ZM304.147 9.05747C303.597 9.05747 303.201 9.13762 302.958 9.29794C302.716 9.45825 302.595 9.74586 302.595 10.1608C302.604 10.4531 302.707 10.6794 302.902 10.8397C303.098 10.9906 303.411 11.0661 303.839 11.0661H305.448V9.05747H304.147Z" fill="#21BA72"/>
<path d="M317.715 13.9662C317.556 14.1642 317.272 14.3575 316.862 14.5461C316.452 14.7348 315.962 14.8291 315.394 14.8291C314.834 14.8291 314.326 14.7536 313.869 14.6027C313.413 14.4424 313.021 14.2067 312.695 13.8955C312.368 13.5843 312.117 13.1977 311.94 12.7356C311.762 12.2735 311.674 11.7313 311.674 11.1089C311.674 10.5054 311.762 9.97728 311.94 9.52464C312.126 9.06257 312.382 8.68065 312.709 8.37889C313.035 8.06769 313.426 7.83666 313.883 7.68578C314.34 7.52546 314.848 7.44531 315.408 7.44531C315.883 7.45474 316.317 7.52075 316.708 7.64334C317.1 7.76593 317.412 7.91681 317.645 8.09598V10.1612C317.403 9.78397 317.095 9.4822 316.722 9.25588C316.358 9.02013 315.92 8.89754 315.408 8.88811C314.736 8.88811 314.224 9.06728 313.869 9.42562C313.515 9.78397 313.338 10.3215 313.338 11.0382V11.2503C313.338 11.9859 313.52 12.5281 313.883 12.877C314.256 13.2165 314.774 13.3863 315.436 13.3863C316.023 13.3863 316.503 13.2778 316.876 13.0609C317.258 12.844 317.538 12.58 317.715 12.2688V13.9662Z" fill="#21BA72"/>
<path d="M318.93 7.60051H320.468V9.0716C320.533 8.87356 320.627 8.68024 320.748 8.49164C320.878 8.29361 321.041 8.11916 321.237 7.96828C321.442 7.8174 321.685 7.69481 321.964 7.60051C322.244 7.5062 322.57 7.45905 322.943 7.45905C323.391 7.45905 323.796 7.52978 324.16 7.67123C324.533 7.80325 324.85 8.0107 325.111 8.2936C325.381 8.57651 325.591 8.93956 325.74 9.38278C325.889 9.82599 325.964 10.3588 325.964 10.9812C325.964 11.679 325.889 12.2731 325.74 12.7635C325.591 13.2444 325.376 13.6405 325.097 13.9517C324.826 14.2534 324.496 14.475 324.104 14.6165C323.712 14.7579 323.279 14.8287 322.803 14.8287C322.244 14.8287 321.773 14.7061 321.391 14.4609C321.018 14.2157 320.743 13.9281 320.566 13.598V17.4031H318.93V7.60051ZM320.566 11.3772C320.566 12.0185 320.734 12.5136 321.069 12.8625C321.405 13.202 321.862 13.3717 322.44 13.3717C323.102 13.3717 323.582 13.1973 323.88 12.8483C324.179 12.49 324.328 11.8912 324.328 11.0519C324.328 10.2786 324.155 9.7317 323.81 9.41108C323.475 9.09046 323.027 8.93013 322.468 8.93013C321.825 8.93013 321.349 9.09989 321.041 9.43937C320.743 9.77885 320.585 10.2456 320.566 10.8397V11.3772Z" fill="#21BA72"/>
<path d="M332.947 13.9662C332.863 14.0699 332.742 14.1737 332.583 14.2774C332.425 14.3717 332.234 14.4613 332.01 14.5461C331.786 14.631 331.535 14.697 331.255 14.7442C330.985 14.7913 330.691 14.8149 330.374 14.8149C329.209 14.8243 328.304 14.5179 327.661 13.8955C327.018 13.2637 326.696 12.3348 326.696 11.1089C326.696 10.5242 326.78 10.0056 326.948 9.55293C327.125 9.09086 327.372 8.70422 327.689 8.39303C328.006 8.08184 328.379 7.84609 328.808 7.68578C329.246 7.52546 329.731 7.44531 330.262 7.44531C331.278 7.45474 332.071 7.76122 332.639 8.36474C333.217 8.96826 333.506 9.8264 333.506 10.9391V11.6181H328.318C328.449 12.7969 329.153 13.3863 330.43 13.3863C331.073 13.3863 331.605 13.2778 332.024 13.0609C332.453 12.844 332.761 12.58 332.947 12.2688V13.9662ZM330.22 8.88811C329.689 8.88811 329.265 9.02013 328.948 9.28417C328.631 9.54821 328.43 9.93485 328.346 10.4441H331.87C331.852 9.96314 331.698 9.58593 331.409 9.31246C331.12 9.02956 330.724 8.88811 330.22 8.88811Z" fill="#21BA72"/>
<path d="M334.622 13.1737C334.715 12.9191 334.799 12.6409 334.874 12.3391C334.958 12.0279 335.028 11.679 335.084 11.2924C335.139 10.9057 335.181 10.4767 335.209 10.0052C335.237 9.52426 335.251 8.99146 335.251 8.4068V7.60052H340.621V13.1737H341.684V16.5119H340.202V14.6731H335.293V16.5119H333.811V13.1737H334.622ZM336.776 9.2272C336.757 10.0476 336.706 10.7737 336.622 11.4055C336.538 12.0279 336.398 12.6173 336.202 13.1737H338.985V9.05747H336.776V9.2272Z" fill="#21BA72"/>
<path d="M342.881 8.09558C343.114 7.91641 343.436 7.76553 343.846 7.64294C344.265 7.52035 344.778 7.45905 345.384 7.45905C346.409 7.45905 347.174 7.65236 347.677 8.03899C348.181 8.42563 348.432 9.08103 348.432 10.0052V14.6731H346.894V13.4C346.726 13.8149 346.437 14.1497 346.027 14.4043C345.626 14.6589 345.146 14.7862 344.587 14.7862C343.878 14.7862 343.324 14.5976 342.923 14.2204C342.531 13.8338 342.335 13.2916 342.335 12.5937C342.335 12.1882 342.405 11.8535 342.545 11.5894C342.685 11.3254 342.881 11.1179 343.133 10.967C343.384 10.8067 343.687 10.6936 344.041 10.6276C344.396 10.5615 344.787 10.5285 345.216 10.5285H346.796V10.2173C346.796 9.71756 346.675 9.37336 346.433 9.18476C346.2 8.99616 345.85 8.90184 345.384 8.90184C344.741 8.90184 344.223 9.01973 343.832 9.25548C343.44 9.4818 343.123 9.78357 342.881 10.1608V8.09558ZM345.104 13.301C345.384 13.301 345.622 13.268 345.817 13.202C346.023 13.1265 346.195 13.0369 346.335 12.9332C346.475 12.82 346.582 12.6975 346.656 12.5654C346.731 12.4334 346.778 12.3061 346.796 12.1835V11.6036H345.412C344.927 11.6036 344.568 11.6601 344.335 11.7733C344.102 11.8865 343.986 12.1034 343.986 12.424C343.986 12.6975 344.079 12.9143 344.265 13.0747C344.461 13.2255 344.741 13.301 345.104 13.301Z" fill="#21BA72"/>
</g>
<defs>
<linearGradient id="paint0_linear_1211_966" x1="5.43342" y1="26.8511" x2="1.3948" y2="15.1771" gradientUnits="userSpaceOnUse">
<stop offset="0.1444" stop-color="#F2E913"/>
<stop offset="0.3037" stop-color="#E7E518"/>
<stop offset="0.5823" stop-color="#CADB26"/>
<stop offset="0.891" stop-color="#A3CD39"/>
</linearGradient>
<linearGradient id="paint1_linear_1211_966" x1="5.7411" y1="5.341" x2="16.1429" y2="1.37708" gradientUnits="userSpaceOnUse">
<stop offset="0.0592" stop-color="#0FA8E0"/>
<stop offset="0.5385" stop-color="#0099F9"/>
<stop offset="0.9234" stop-color="#0291EB"/>
</linearGradient>
<linearGradient id="paint2_linear_1211_966" x1="14.9561" y1="29.7706" x2="26.7187" y2="27.1121" gradientUnits="userSpaceOnUse">
<stop offset="0.1226" stop-color="#A3CD39"/>
<stop offset="0.2846" stop-color="#86C339"/>
<stop offset="0.8693" stop-color="#21A038"/>
</linearGradient>
<linearGradient id="paint3_linear_1211_966" x1="15.2257" y1="1.23913" x2="25.2825" y2="4.34211" gradientUnits="userSpaceOnUse">
<stop offset="0.0566" stop-color="#0291EB"/>
<stop offset="0.79" stop-color="#0C8ACB"/>
</linearGradient>
<linearGradient id="paint4_linear_1211_966" x1="5.06154" y1="26.2847" x2="16.0085" y2="30.3748" gradientUnits="userSpaceOnUse">
<stop offset="0.1324" stop-color="#F2E913"/>
<stop offset="0.2977" stop-color="#EBE716"/>
<stop offset="0.5306" stop-color="#D9E01F"/>
<stop offset="0.8023" stop-color="#BBD62D"/>
<stop offset="0.9829" stop-color="#A3CD39"/>
</linearGradient>
<linearGradient id="paint5_linear_1211_966" x1="1.37587" y1="16.4483" x2="5.77004" y2="5.01743" gradientUnits="userSpaceOnUse">
<stop offset="0.0698" stop-color="#A3CD39"/>
<stop offset="0.2599" stop-color="#81C55F"/>
<stop offset="0.9216" stop-color="#0FA8E0"/>
</linearGradient>
<clipPath id="clip0_1211_966">
<rect width="386" height="32" fill="white"/>
</clipPath>
</defs>
</svg>
