<svg width="17" height="13" viewBox="0 0 17 13" fill="none" xmlns="http://www.w3.org/2000/svg">
<path fill-rule="evenodd" clip-rule="evenodd" d="M13.022 12.856C13.137 12.93 13.2673 12.977 13.4031 12.9934C13.5389 13.0099 13.6766 12.9954 13.806 12.951C13.9306 12.9106 14.043 12.8394 14.1327 12.7439C14.2224 12.6484 14.2865 12.5319 14.319 12.405C14.934 9.74999 16.428 3.02999 16.988 0.615987C17.008 0.524968 17.0012 0.430128 16.9686 0.342854C16.9359 0.25558 16.8788 0.179582 16.804 0.123987C16.7246 0.0635299 16.6315 0.0235963 16.5329 0.00772324C16.4344 -0.00814986 16.3334 0.000527479 16.239 0.0329866C13.27 1.03999 4.12301 4.18999 0.384008 5.45999C0.272473 5.49364 0.174813 5.56246 0.105606 5.65618C0.0363989 5.7499 -0.000643439 5.86349 8.45921e-06 5.97999C0.00900846 6.20999 0.177008 6.40999 0.420008 6.47599C2.09701 6.93599 4.29801 7.57599 4.29801 7.57599C4.29801 7.57599 5.32601 10.426 5.86201 11.876C5.89665 11.9689 5.95378 12.0518 6.0283 12.1172C6.10281 12.1827 6.19239 12.2286 6.28901 12.251C6.38872 12.2752 6.49274 12.2757 6.59264 12.2522C6.69255 12.2288 6.78551 12.1821 6.86401 12.116L9.05701 10.216C9.05701 10.216 11.587 11.919 13.022 12.856ZM5.22301 7.21599L6.41301 10.816L6.67701 8.53599L13.891 2.56599C13.9091 2.55174 13.9241 2.53397 13.935 2.51376C13.946 2.49355 13.9528 2.47132 13.955 2.44841C13.9571 2.42551 13.9546 2.4024 13.9476 2.3805C13.9405 2.3586 13.9291 2.33835 13.914 2.32099C13.8812 2.28458 13.8369 2.26055 13.7884 2.2529C13.74 2.24526 13.6905 2.25446 13.648 2.27899L5.22301 7.21599Z" fill="white"/>
</svg>
