<svg width="22" height="22" viewBox="0 0 22 22" fill="none" xmlns="http://www.w3.org/2000/svg">
<path fill-rule="evenodd" clip-rule="evenodd" d="M11 0C8.062 0 5.29932 1.14436 3.2218 3.2218C1.14436 5.29932 0 8.062 0 11C0 13.938 1.14436 16.7007 3.2218 18.7782C5.29932 20.8556 8.062 22 11 22C13.938 22 16.7007 20.8556 18.7782 18.7782C20.8556 16.7007 22 13.938 22 11C22 8.062 20.8556 5.29932 18.7782 3.2218C16.7007 1.14436 13.938 0 11 0ZM1.49412 11C1.49412 6.01003 5.35939 1.9062 10.2529 1.52394V11C10.2529 11.1982 10.3317 11.3882 10.4718 11.5282L17.1693 18.2258C15.5076 19.6467 13.3524 20.5059 11 20.5059C5.75853 20.5059 1.49412 16.2415 1.49412 11ZM11.7471 10.2529V1.52394C16.394 1.88696 20.113 5.60605 20.4761 10.2529H11.7471ZM20.4761 11.7471C20.3151 13.8073 19.4948 15.6851 18.2258 17.1693L12.8036 11.7471H20.4761Z" fill="black"/>
</svg>
