<svg width="17" height="10" viewBox="0 0 17 10" fill="none" xmlns="http://www.w3.org/2000/svg">
<path d="M15.6 0.6C15.7 0.2 15.6 0 15.1 0H13.3C12.9 0 12.7 0.2 12.5 0.5C12.5 0.5 11.6 2.6 10.3 4C9.9 4.4 9.7 4.5 9.5 4.5C9.4 4.5 9.2 4.4 9.2 4V0.6C9.2 0.2 9.1 0 8.7 0H5.9C5.6 0 5.5 0.2 5.5 0.4C5.5 0.8 6.1 0.9 6.2 2.1V4.6C6.2 5.2 6.1 5.3 5.9 5.3C5.3 5.3 3.9 3.2 3 0.7C3 0.2 2.8 0 2.4 0H0.6C0.0999999 0 0 0.2 0 0.5C0 1 0.6 3.2 2.8 6.2C4.2 8.2 6.3 9.3 8.1 9.3C9.2 9.3 9.4 9.1 9.4 8.6V7.1C9.4 6.6 9.5 6.5 9.9 6.5C10.2 6.5 10.6 6.6 11.6 7.6C12.8 8.8 13 9.3 13.6 9.3H15.4C15.9 9.3 16.2 9.1 16 8.6C15.8 8.1 15.3 7.4 14.5 6.6C14.1 6.1 13.5 5.6 13.3 5.4C13 5.1 13.1 4.9 13.3 4.6C13.3 4.5 15.4 1.6 15.6 0.6Z" fill="white"/>
</svg>
